<?xml version="1.0" encoding="utf-8"?><!-- Uploaded to: SVG Repo, www.svgrepo.com, Generator: SVG Repo Mixer Tools -->
<svg width="800px" height="800px" viewBox="0 0 320 320" fill="none" xmlns="http://www.w3.org/2000/svg">
<path fill-rule="evenodd" clip-rule="evenodd" d="M144.577 76.5002C132.494 67.4696 111.298 62.49 90.4969 69.5974C63.8886 78.6891 43.9206 99.5912 43.8605 128.961C43.851 133.581 44.285 137.808 45.1281 141.663C61.1842 116.364 102.586 90.7698 144.577 76.5002ZM56.5484 162.199C67.5221 139.505 109.273 107.955 157.363 94.1344C161.507 105.405 160.774 118.439 155.989 132.085C150.421 147.965 141.053 159.97 128.911 167.286C116.236 171.216 103.79 174.002 92.3448 175.259C77.4564 174.103 65.0732 170.03 56.5484 162.199ZM198.163 135.099C199.184 133.771 200.336 132.42 201.633 131.044C209.403 122.802 218.314 116.125 227.692 112.098C227.26 112.535 226.821 112.973 226.375 113.41C215.648 122.697 208.714 128.127 198.163 135.099ZM191.155 166.789C218.696 151.751 241.168 131.669 254.45 108.6C259.925 109.634 265.348 111.842 270.597 115.422C287.675 127.07 293.77 143.533 292.924 164.891C291.933 189.886 276.056 207.591 256.706 225.817C233.227 247.933 221.765 257.654 191.214 265.913C172.897 270.865 158.966 270.6 146.562 261.747C141.798 258.347 137.766 253.759 135.355 248.14C136.072 244.929 137.661 242.174 141.424 239.962C142.324 239.432 142.249 237.464 141.395 236.9C137.968 234.635 136.041 230.083 134.579 225.692C135.223 223.542 136.068 221.326 137.136 219.047C141.633 209.444 148.76 206.311 156.633 204.119C153.489 207.992 151.677 212.911 151.964 218.488C152.413 227.208 157.663 233.645 164.858 236.931C167.754 238.254 170.966 239.067 174.306 239.312C176.25 239.455 178.164 239.352 180.012 239.028C190.207 237.239 198.44 228.71 199.074 217.446C199.741 205.596 190.754 196.957 179.938 195.337C181.607 194.104 183.223 192.654 184.765 190.928C192.076 182.747 191.842 174.976 191.155 166.789ZM203.041 189.674C206.517 186.468 209.121 181.819 210.673 177.38C211.015 176.401 212.432 176.37 212.748 177.359C214.24 182.03 216.16 187.143 219.798 189.652C220.666 190.251 220.775 192.342 219.872 192.881C214.233 196.25 213.557 200.863 213.316 206.419C213.27 207.489 212.147 207.698 211.795 206.692C210.148 201.996 207.479 194.773 203.328 192.049C202.596 191.569 202.393 190.272 203.041 189.674Z" fill="#6DBCB9"/>
<path d="M38.9283 155.807C50.8308 103.745 195.135 40.7513 242.243 74.591M38.9283 155.807L53.5917 193.78C53.7232 194.12 54.028 194.356 54.3866 194.394C91.2355 198.253 129.049 192.535 162.405 179.945M38.9283 155.807C41.6963 162.951 46.8653 167.997 53.805 171.259M242.243 74.591C242.479 75.1196 242.689 75.6534 242.873 76.1922M242.243 74.591L242.873 76.1922M53.805 171.259C56.7803 137.585 160.421 66.7819 241.584 92.8125M53.805 171.259C83.9121 185.412 147.347 165.992 192.654 138.673C206.544 129.802 213.891 124.218 226.375 113.41C233.474 106.457 238.762 99.4823 241.584 92.8125M241.584 92.8125C244.058 86.9641 244.635 81.3503 242.873 76.1922M162.405 179.945C164.792 185.457 171.331 187.701 174.306 187.043C177.282 186.386 181.231 175.59 180.012 172.466M162.405 179.945C159.125 174.398 162.735 165.837 168.852 164.657C174.003 163.663 177.778 166.739 180.012 172.466M180.012 172.466C212.939 156.837 239.951 134.264 254.896 107.818C255.049 107.547 255.071 107.223 254.959 106.939L242.873 76.1922M244.227 105.828L244.723 111.034M240.26 116.761L236.293 121.446M191.167 79.2764L198.605 78.2351M203.564 73.5496L211.498 73.5496M62.2351 187.043L67.194 187.043M77.1118 187.043L81.5748 187.043M235.301 195.239L236.293 206.692M230.838 202.594L241.747 196.801M179.734 221.611C175.602 221.276 172.696 217.067 173.288 212.761C173.695 209.797 175.103 207.806 177.751 206.692C182.676 204.621 189.096 212.489 186.677 217.446C185.253 220.364 182.848 221.864 179.734 221.611ZM179.734 221.611C175.723 228.759 172.666 232.243 164.858 236.931M179.734 221.611C180.865 228.069 181.183 231.796 180.012 239.028M164.858 236.931C157.663 233.645 152.413 227.208 151.964 218.488C151.317 205.902 161.359 196.664 173.288 195.239C186.771 193.628 199.875 203.225 199.074 217.446C198.44 228.71 190.207 237.239 180.012 239.028M164.858 236.931C167.754 238.254 170.966 239.067 174.306 239.312C176.25 239.455 178.163 239.352 180.012 239.028M210.673 177.38C209.121 181.819 206.517 186.468 203.041 189.674C202.393 190.272 202.596 191.569 203.327 192.049C207.479 194.773 210.148 201.996 211.794 206.692C212.147 207.698 213.27 207.489 213.316 206.419C213.557 200.863 214.233 196.25 219.872 192.881C220.775 192.342 220.666 190.251 219.798 189.652C216.16 187.143 214.239 182.03 212.748 177.359C212.432 176.37 211.015 176.401 210.673 177.38ZM141.424 239.962C135.693 243.332 135.004 247.959 134.761 253.54C134.715 254.589 133.581 254.815 133.237 253.835C131.579 249.104 128.883 241.809 124.678 239.133C123.965 238.68 123.785 237.459 124.425 236.873C127.923 233.673 130.544 229.009 132.106 224.554C132.446 223.586 133.879 223.524 134.187 224.487C135.699 229.227 137.653 234.427 141.395 236.9C142.249 237.464 142.324 239.432 141.424 239.962Z" stroke="#000000" stroke-width="5" stroke-linecap="round"/>
</svg>
